<?xml version="1.0" encoding="UTF-8" standalone="no"?><!DOCTYPE svg PUBLIC "-//W3C//DTD SVG 1.1//EN" "http://www.w3.org/Graphics/SVG/1.1/DTD/svg11.dtd"><svg width="100%" height="100%" viewBox="0 0 2352 1095" version="1.1" xmlns="http://www.w3.org/2000/svg" xmlns:xlink="http://www.w3.org/1999/xlink" xml:space="preserve" xmlns:serif="http://www.serif.com/" style="fill-rule:evenodd;clip-rule:evenodd;stroke-linejoin:round;stroke-miterlimit:2;"><rect id="Artboard1" x="0" y="0" width="2351.416" height="1094.923" style="fill:none;"/><g><g transform="matrix(538.655094,0,0,538.655094,2123.864082,739.761252)"></g><text x="128.686px" y="739.761px" style="font-family:'FuturaCyrillic-Bold', 'Futura PT', sans-serif;font-weight:700;font-size:538.655px;fill:#fff;">s<tspan x="338.222px 613.475px 728.747px 938.284px 1378.904px 1494.176px 1609.448px 1884.701px " y="739.761px 739.761px 739.761px 739.761px 739.761px 739.761px 739.761px 739.761px ">eismiles</tspan></text><g id="MARCA-Registrada" serif:id="MARCA Registrada"><path d="M2138.722,423.258l0,-50.585l22.428,0c4.509,0 7.936,0.454 10.283,1.363c2.346,0.909 4.221,2.513 5.624,4.813c1.403,2.3 2.105,4.842 2.105,7.626c0,3.589 -1.162,6.614 -3.485,9.075c-2.323,2.461 -5.912,4.026 -10.766,4.693c1.771,0.851 3.117,1.691 4.037,2.519c1.955,1.794 3.807,4.037 5.555,6.729l8.799,13.768l-8.419,0l-6.694,-10.524c-1.955,-3.036 -3.566,-5.36 -4.831,-6.97c-1.265,-1.61 -2.398,-2.737 -3.399,-3.382c-1.001,-0.644 -2.019,-1.093 -3.054,-1.346c-0.759,-0.161 -2.001,-0.242 -3.727,-0.242l-7.764,0l0,22.463l-6.694,0Zm6.694,-28.26l14.389,0c3.059,0 5.452,-0.316 7.177,-0.949c1.725,-0.633 3.036,-1.645 3.934,-3.036c0.897,-1.392 1.346,-2.904 1.346,-4.537c0,-2.392 -0.868,-4.359 -2.605,-5.9c-1.737,-1.541 -4.48,-2.312 -8.23,-2.312l-16.01,0l0,16.735Z" style="fill:#fff;fill-rule:nonzero;"/><path d="M2158.753,348.532c27.283,0 49.433,22.15 49.433,49.433c0,27.283 -22.15,49.433 -49.433,49.433c-27.283,0 -49.433,-22.15 -49.433,-49.433c0,-27.283 22.15,-49.433 49.433,-49.433Zm0,6.091c-23.921,0 -43.342,19.421 -43.342,43.342c0,23.921 19.421,43.342 43.342,43.342c23.921,0 43.342,-19.421 43.342,-43.342c0,-23.921 -19.421,-43.342 -43.342,-43.342Z" style="fill:#fff;"/></g></g></svg>